<mxfile host="app.diagrams.net" modified="2023-11-15T02:45:16.830Z" agent="Mozilla/5.0 (Windows NT 10.0; Win64; x64) AppleWebKit/537.36 (KHTML, like Gecko) Chrome/119.0.0.0 Safari/537.36 Edg/119.0.0.0" etag="tIGyS1FDpVQ_kyncFVQT" version="22.1.1" type="device">
  <diagram name="Page-1" id="Ow2NWfyHA8QmEdyQYtGv">
    <mxGraphModel dx="1388" dy="661" grid="1" gridSize="10" guides="1" tooltips="1" connect="1" arrows="1" fold="1" page="1" pageScale="1" pageWidth="1100" pageHeight="850" math="0" shadow="0">
      <root>
        <mxCell id="0" />
        <mxCell id="1" parent="0" />
        <mxCell id="s7GJ0OFSb9FaqXqEgfi8-1" value=":ML Model (Class)" style="shape=umlLifeline;perimeter=lifelinePerimeter;whiteSpace=wrap;html=1;container=0;dropTarget=0;collapsible=0;recursiveResize=0;outlineConnect=0;portConstraint=eastwest;newEdgeStyle={&quot;edgeStyle&quot;:&quot;elbowEdgeStyle&quot;,&quot;elbow&quot;:&quot;vertical&quot;,&quot;curved&quot;:0,&quot;rounded&quot;:0};" parent="1" vertex="1">
          <mxGeometry x="430" y="200" width="100" height="400" as="geometry" />
        </mxCell>
        <mxCell id="s7GJ0OFSb9FaqXqEgfi8-2" value="" style="html=1;points=[];perimeter=orthogonalPerimeter;outlineConnect=0;targetShapes=umlLifeline;portConstraint=eastwest;newEdgeStyle={&quot;edgeStyle&quot;:&quot;elbowEdgeStyle&quot;,&quot;elbow&quot;:&quot;vertical&quot;,&quot;curved&quot;:0,&quot;rounded&quot;:0};" parent="s7GJ0OFSb9FaqXqEgfi8-1" vertex="1">
          <mxGeometry x="45" y="120" width="10" height="130" as="geometry" />
        </mxCell>
        <mxCell id="s7GJ0OFSb9FaqXqEgfi8-3" value="Setup Convolutional Neural Network" style="html=1;align=left;spacingLeft=2;endArrow=block;rounded=0;edgeStyle=orthogonalEdgeStyle;curved=0;rounded=0;" parent="s7GJ0OFSb9FaqXqEgfi8-1" edge="1">
          <mxGeometry relative="1" as="geometry">
            <mxPoint x="55" y="160" as="sourcePoint" />
            <Array as="points">
              <mxPoint x="90" y="160" />
              <mxPoint x="90" y="200" />
            </Array>
            <mxPoint x="55" y="200" as="targetPoint" />
          </mxGeometry>
        </mxCell>
        <mxCell id="s7GJ0OFSb9FaqXqEgfi8-17" value="" style="html=1;points=[];perimeter=orthogonalPerimeter;outlineConnect=0;targetShapes=umlLifeline;portConstraint=eastwest;newEdgeStyle={&quot;edgeStyle&quot;:&quot;elbowEdgeStyle&quot;,&quot;elbow&quot;:&quot;vertical&quot;,&quot;curved&quot;:0,&quot;rounded&quot;:0};" parent="s7GJ0OFSb9FaqXqEgfi8-1" vertex="1">
          <mxGeometry x="45" y="60" width="10" height="30" as="geometry" />
        </mxCell>
        <mxCell id="s7GJ0OFSb9FaqXqEgfi8-4" value=":File System" style="shape=umlLifeline;perimeter=lifelinePerimeter;whiteSpace=wrap;html=1;container=0;dropTarget=0;collapsible=0;recursiveResize=0;outlineConnect=0;portConstraint=eastwest;newEdgeStyle={&quot;edgeStyle&quot;:&quot;elbowEdgeStyle&quot;,&quot;elbow&quot;:&quot;vertical&quot;,&quot;curved&quot;:0,&quot;rounded&quot;:0};" parent="1" vertex="1">
          <mxGeometry x="690" y="135" width="100" height="465" as="geometry" />
        </mxCell>
        <mxCell id="s7GJ0OFSb9FaqXqEgfi8-14" value="" style="html=1;points=[[0,0,0,0,5],[0,1,0,0,-5],[1,0,0,0,5],[1,1,0,0,-5]];perimeter=orthogonalPerimeter;outlineConnect=0;targetShapes=umlLifeline;portConstraint=eastwest;newEdgeStyle={&quot;curved&quot;:0,&quot;rounded&quot;:0};" parent="s7GJ0OFSb9FaqXqEgfi8-4" vertex="1">
          <mxGeometry x="45" y="135" width="10" height="55" as="geometry" />
        </mxCell>
        <mxCell id="I4lYP4IJBTwxv8p_USNZ-1" value="" style="html=1;points=[[0,0,0,0,5],[0,1,0,0,-5],[1,0,0,0,5],[1,1,0,0,-5]];perimeter=orthogonalPerimeter;outlineConnect=0;targetShapes=umlLifeline;portConstraint=eastwest;newEdgeStyle={&quot;curved&quot;:0,&quot;rounded&quot;:0};" vertex="1" parent="s7GJ0OFSb9FaqXqEgfi8-4">
          <mxGeometry x="45" y="405" width="10" height="55" as="geometry" />
        </mxCell>
        <mxCell id="s7GJ0OFSb9FaqXqEgfi8-8" value="" style="shape=umlLifeline;perimeter=lifelinePerimeter;whiteSpace=wrap;html=1;container=1;dropTarget=0;collapsible=0;recursiveResize=0;outlineConnect=0;portConstraint=eastwest;newEdgeStyle={&quot;curved&quot;:0,&quot;rounded&quot;:0};participant=umlActor;" parent="1" vertex="1">
          <mxGeometry x="870" y="133" width="20" height="467" as="geometry" />
        </mxCell>
        <mxCell id="s7GJ0OFSb9FaqXqEgfi8-21" value="" style="html=1;points=[];perimeter=orthogonalPerimeter;outlineConnect=0;targetShapes=umlLifeline;portConstraint=eastwest;newEdgeStyle={&quot;edgeStyle&quot;:&quot;elbowEdgeStyle&quot;,&quot;elbow&quot;:&quot;vertical&quot;,&quot;curved&quot;:0,&quot;rounded&quot;:0};" parent="s7GJ0OFSb9FaqXqEgfi8-8" vertex="1">
          <mxGeometry x="5" y="347" width="10" height="40" as="geometry" />
        </mxCell>
        <mxCell id="s7GJ0OFSb9FaqXqEgfi8-11" value=":Main()" style="shape=umlLifeline;perimeter=lifelinePerimeter;whiteSpace=wrap;html=1;container=0;dropTarget=0;collapsible=0;recursiveResize=0;outlineConnect=0;portConstraint=eastwest;newEdgeStyle={&quot;edgeStyle&quot;:&quot;elbowEdgeStyle&quot;,&quot;elbow&quot;:&quot;vertical&quot;,&quot;curved&quot;:0,&quot;rounded&quot;:0};" parent="1" vertex="1">
          <mxGeometry x="210" y="130" width="110" height="470" as="geometry" />
        </mxCell>
        <mxCell id="s7GJ0OFSb9FaqXqEgfi8-12" value="" style="html=1;points=[];perimeter=orthogonalPerimeter;outlineConnect=0;targetShapes=umlLifeline;portConstraint=eastwest;newEdgeStyle={&quot;edgeStyle&quot;:&quot;elbowEdgeStyle&quot;,&quot;elbow&quot;:&quot;vertical&quot;,&quot;curved&quot;:0,&quot;rounded&quot;:0};" parent="s7GJ0OFSb9FaqXqEgfi8-11" vertex="1">
          <mxGeometry x="50" y="70" width="10" height="40" as="geometry" />
        </mxCell>
        <mxCell id="s7GJ0OFSb9FaqXqEgfi8-19" value="" style="html=1;points=[];perimeter=orthogonalPerimeter;outlineConnect=0;targetShapes=umlLifeline;portConstraint=eastwest;newEdgeStyle={&quot;edgeStyle&quot;:&quot;elbowEdgeStyle&quot;,&quot;elbow&quot;:&quot;vertical&quot;,&quot;curved&quot;:0,&quot;rounded&quot;:0};" parent="s7GJ0OFSb9FaqXqEgfi8-11" vertex="1">
          <mxGeometry x="50" y="300" width="10" height="60" as="geometry" />
        </mxCell>
        <mxCell id="P_YT-sTP9ZJPTK59YY_1-1" value="" style="html=1;points=[];perimeter=orthogonalPerimeter;outlineConnect=0;targetShapes=umlLifeline;portConstraint=eastwest;newEdgeStyle={&quot;edgeStyle&quot;:&quot;elbowEdgeStyle&quot;,&quot;elbow&quot;:&quot;vertical&quot;,&quot;curved&quot;:0,&quot;rounded&quot;:0};" parent="s7GJ0OFSb9FaqXqEgfi8-11" vertex="1">
          <mxGeometry x="50" y="390" width="10" height="30" as="geometry" />
        </mxCell>
        <mxCell id="s7GJ0OFSb9FaqXqEgfi8-13" value="Initiation" style="html=1;verticalAlign=bottom;endArrow=block;curved=0;rounded=0;entryX=0;entryY=0.039;entryDx=0;entryDy=0;entryPerimeter=0;" parent="1" source="s7GJ0OFSb9FaqXqEgfi8-12" target="s7GJ0OFSb9FaqXqEgfi8-1" edge="1">
          <mxGeometry x="0.0069" width="80" relative="1" as="geometry">
            <mxPoint x="380" y="210" as="sourcePoint" />
            <mxPoint x="460" y="210" as="targetPoint" />
            <mxPoint as="offset" />
          </mxGeometry>
        </mxCell>
        <mxCell id="s7GJ0OFSb9FaqXqEgfi8-15" value="Request for weight and biases" style="html=1;verticalAlign=bottom;endArrow=block;curved=0;rounded=0;" parent="1" edge="1" target="s7GJ0OFSb9FaqXqEgfi8-14">
          <mxGeometry relative="1" as="geometry">
            <mxPoint x="485" y="270" as="sourcePoint" />
            <mxPoint x="745" y="270" as="targetPoint" />
          </mxGeometry>
        </mxCell>
        <mxCell id="s7GJ0OFSb9FaqXqEgfi8-16" value="return" style="html=1;verticalAlign=bottom;endArrow=open;dashed=1;endSize=8;curved=0;rounded=0;exitX=0;exitY=1;exitDx=0;exitDy=-5;" parent="1" source="s7GJ0OFSb9FaqXqEgfi8-14" target="s7GJ0OFSb9FaqXqEgfi8-2" edge="1">
          <mxGeometry relative="1" as="geometry">
            <mxPoint x="580" y="340" as="targetPoint" />
          </mxGeometry>
        </mxCell>
        <mxCell id="s7GJ0OFSb9FaqXqEgfi8-18" value="User" style="text;strokeColor=none;align=center;fillColor=none;html=1;verticalAlign=middle;whiteSpace=wrap;rounded=0;" parent="1" vertex="1">
          <mxGeometry x="850" y="110" width="60" height="30" as="geometry" />
        </mxCell>
        <mxCell id="s7GJ0OFSb9FaqXqEgfi8-20" value="Setup Complete Message" style="html=1;verticalAlign=bottom;endArrow=open;dashed=1;endSize=8;curved=0;rounded=0;" parent="1" source="s7GJ0OFSb9FaqXqEgfi8-2" target="s7GJ0OFSb9FaqXqEgfi8-19" edge="1">
          <mxGeometry relative="1" as="geometry">
            <mxPoint x="535" y="440" as="sourcePoint" />
            <mxPoint x="345" y="440" as="targetPoint" />
          </mxGeometry>
        </mxCell>
        <mxCell id="s7GJ0OFSb9FaqXqEgfi8-22" value="Prompt User&amp;nbsp;&lt;br&gt;to start" style="html=1;verticalAlign=bottom;endArrow=block;curved=0;rounded=0;" parent="1" source="s7GJ0OFSb9FaqXqEgfi8-19" target="s7GJ0OFSb9FaqXqEgfi8-21" edge="1">
          <mxGeometry width="80" relative="1" as="geometry">
            <mxPoint x="265" y="485" as="sourcePoint" />
            <mxPoint x="380" y="485" as="targetPoint" />
          </mxGeometry>
        </mxCell>
        <mxCell id="P_YT-sTP9ZJPTK59YY_1-2" value="Generate CSV file" style="html=1;verticalAlign=bottom;endArrow=open;dashed=1;endSize=8;curved=0;rounded=0;" parent="1" source="s7GJ0OFSb9FaqXqEgfi8-21" target="P_YT-sTP9ZJPTK59YY_1-1" edge="1">
          <mxGeometry relative="1" as="geometry">
            <mxPoint x="370" y="530" as="sourcePoint" />
            <mxPoint x="290" y="530" as="targetPoint" />
            <Array as="points">
              <mxPoint x="340" y="520" />
            </Array>
          </mxGeometry>
        </mxCell>
        <mxCell id="I4lYP4IJBTwxv8p_USNZ-2" value="Initiation" style="html=1;verticalAlign=bottom;endArrow=block;curved=0;rounded=0;entryX=0;entryY=0.039;entryDx=0;entryDy=0;entryPerimeter=0;" edge="1" parent="1">
          <mxGeometry x="0.0069" width="80" relative="1" as="geometry">
            <mxPoint x="300" y="540" as="sourcePoint" />
            <mxPoint x="460" y="540" as="targetPoint" />
            <mxPoint as="offset" />
          </mxGeometry>
        </mxCell>
      </root>
    </mxGraphModel>
  </diagram>
</mxfile>
